<svg width="40" height="40" viewBox="0 0 40 40" fill="none" xmlns="http://www.w3.org/2000/svg">
<path d="M29.6414 1.33333H10.3584C6.91912 1.33333 4.12109 4.13143 4.12109 7.57069V23.3158C4.12109 26.7551 6.91919 29.5532 10.3584 29.5532H13.5856L12.9493 37.1052C12.8437 38.358 14.2857 39.1265 15.2677 38.3619L26.5848 29.5532H29.6414C33.0807 29.5532 35.8788 26.7551 35.8788 23.3158V7.57069C35.8787 4.13143 33.0805 1.33333 29.6414 1.33333ZM33 23.3158C33 25.1678 31.4933 26.6744 29.6414 26.6744H26.0907C25.7704 26.6744 25.4593 26.7812 25.2067 26.9779L16.094 34.0707L16.4745 29.5532H17.7103C18.5052 29.5532 19.1496 28.9088 19.1496 28.1138C19.1496 27.3189 18.5052 26.6744 17.7103 26.6744C16.6779 26.6744 10.9426 26.6744 10.3585 26.6744C8.50658 26.6744 6.99998 25.1678 6.99998 23.3159V7.57069C6.99998 5.71875 8.50666 4.21215 10.3585 4.21215H29.6414C31.4933 4.21215 32.9999 5.71882 32.9999 7.57069L33 23.3158Z" fill="#181423"/>
<path d="M33 23.3158C33 25.1678 31.4933 26.6744 29.6414 26.6744H26.0907C25.7704 26.6744 25.4593 26.7812 25.2067 26.9779L16.094 34.0707L16.4745 29.5532H17.7103C18.5052 29.5532 19.1496 28.9088 19.1496 28.1138C19.1496 27.3189 18.5052 26.6744 17.7103 26.6744H10.3585C8.50658 26.6744 6.99998 25.1678 6.99998 23.3159V7.57069C6.99998 5.71875 8.50666 4.21215 10.3585 4.21215H29.6414C31.4933 4.21215 32.9999 5.71882 32.9999 7.57069L33 23.3158Z" fill="#181423"/>
<path d="M33 23.3158C33 25.1678 31.4933 26.6744 29.6414 26.6744H26.0907C25.7704 26.6744 25.4593 26.7812 25.2067 26.9779L16.094 34.0707L16.4745 29.5532H17.7103C18.5052 29.5532 19.1496 28.9088 19.1496 28.1138C19.1496 27.3189 18.5052 26.6744 17.7103 26.6744H10.3585C8.50658 26.6744 6.99998 25.1678 6.99998 23.3159V7.57069C6.99998 5.71875 8.50666 4.21215 10.3585 4.21215H29.6414C31.4933 4.21215 32.9999 5.71882 32.9999 7.57069L33 23.3158Z" fill="#939FF8"/>
<path d="M25.5722 14.7705L16.7802 9.69454C15.821 9.14074 14.6211 9.83563 14.6211 10.941V21.0932C14.6211 22.2076 15.8291 22.889 16.7802 22.3397L25.5722 17.2637C26.5312 16.7098 26.5299 15.3233 25.5722 14.7705ZM17.4998 18.6V13.434L21.9737 16.017L17.4998 18.6Z" fill="#181423"/>
</svg>
