<svg width="168" height="40" viewBox="0 0 168 40" fill="none" xmlns="http://www.w3.org/2000/svg">
<path d="M29.6414 1.33333H10.3584C6.91918 1.33333 4.12115 4.13143 4.12115 7.57069V23.3158C4.12115 26.7551 6.91925 29.5532 10.3585 29.5532H13.5856L12.9494 37.1052C12.8438 38.358 14.2857 39.1265 15.2678 38.3619L26.5849 29.5532H29.6415C33.0807 29.5532 35.8788 26.7551 35.8788 23.3158V7.57069C35.8788 4.13143 33.0806 1.33333 29.6414 1.33333ZM33 23.3158C33 25.1678 31.4934 26.6744 29.6415 26.6744H26.0908C25.7704 26.6744 25.4594 26.7812 25.2067 26.9779L16.094 34.0707L16.4746 29.5532H17.7103C18.5052 29.5532 19.1497 28.9088 19.1497 28.1138C19.1497 27.3189 18.5052 26.6744 17.7103 26.6744C16.678 26.6744 10.9426 26.6744 10.3586 26.6744C8.50664 26.6744 7.00004 25.1678 7.00004 23.3159V7.57069C7.00004 5.71875 8.50672 4.21215 10.3586 4.21215H29.6414C31.4934 4.21215 33 5.71882 33 7.57069L33 23.3158Z" fill="#181423"/>
<path d="M33 23.3158C33 25.1678 31.4934 26.6744 29.6415 26.6744H26.0908C25.7704 26.6744 25.4594 26.7812 25.2067 26.9779L16.094 34.0707L16.4746 29.5532H17.7103C18.5052 29.5532 19.1497 28.9088 19.1497 28.1138C19.1497 27.3189 18.5052 26.6744 17.7103 26.6744H10.3586C8.50664 26.6744 7.00004 25.1678 7.00004 23.3159V7.57069C7.00004 5.71875 8.50672 4.21215 10.3586 4.21215H29.6414C31.4934 4.21215 33 5.71882 33 7.57069L33 23.3158Z" fill="#181423"/>
<path d="M33 23.3158C33 25.1678 31.4934 26.6744 29.6415 26.6744H26.0908C25.7704 26.6744 25.4594 26.7812 25.2067 26.9779L16.094 34.0707L16.4746 29.5532H17.7103C18.5052 29.5532 19.1497 28.9088 19.1497 28.1138C19.1497 27.3189 18.5052 26.6744 17.7103 26.6744H10.3586C8.50664 26.6744 7.00004 25.1678 7.00004 23.3159V7.57069C7.00004 5.71875 8.50672 4.21215 10.3586 4.21215H29.6414C31.4934 4.21215 33 5.71882 33 7.57069L33 23.3158Z" fill="#939FF8"/>
<path d="M25.5722 14.7705L16.7802 9.69454C15.821 9.14074 14.6211 9.83563 14.6211 10.941V21.0932C14.6211 22.2076 15.8291 22.889 16.7802 22.3397L25.5722 17.2637C26.5312 16.7098 26.5299 15.3233 25.5722 14.7705ZM17.4999 18.6V13.434L21.9737 16.017L17.4999 18.6Z" fill="#181423"/>
<path d="M46.504 30L51.656 10.4H58.096L63.248 30H59.44L58.376 25.688H51.376L50.312 30H46.504ZM52.244 22.272H57.508L55.128 12.724H54.624L52.244 22.272ZM67.2181 35.6V32.52H74.7781C75.3008 32.52 75.5621 32.24 75.5621 31.68V28.18H75.0581C74.9088 28.4973 74.6754 28.8147 74.3581 29.132C74.0408 29.4493 73.6114 29.7107 73.0701 29.916C72.5288 30.1213 71.8381 30.224 70.9981 30.224C69.9154 30.224 68.9634 29.9813 68.1421 29.496C67.3394 28.992 66.7141 28.3013 66.2661 27.424C65.8181 26.5467 65.5941 25.5387 65.5941 24.4V16.112H69.1221V24.12C69.1221 25.1653 69.3741 25.9493 69.8781 26.472C70.4008 26.9947 71.1381 27.256 72.0901 27.256C73.1728 27.256 74.0128 26.9013 74.6101 26.192C75.2074 25.464 75.5061 24.456 75.5061 23.168V16.112H79.0341V32.464C79.0341 33.416 78.7541 34.172 78.1941 34.732C77.6341 35.3107 76.8874 35.6 75.9541 35.6H67.2181ZM89.568 30.392C88.1867 30.392 86.9453 30.112 85.844 29.552C84.7427 28.992 83.8747 28.18 83.24 27.116C82.6053 26.052 82.288 24.7733 82.288 23.28V22.832C82.288 21.3387 82.6053 20.06 83.24 18.996C83.8747 17.932 84.7427 17.12 85.844 16.56C86.9453 16 88.1867 15.72 89.568 15.72C90.9493 15.72 92.1907 16 93.292 16.56C94.3933 17.12 95.2613 17.932 95.896 18.996C96.5307 20.06 96.848 21.3387 96.848 22.832V23.28C96.848 24.7733 96.5307 26.052 95.896 27.116C95.2613 28.18 94.3933 28.992 93.292 29.552C92.1907 30.112 90.9493 30.392 89.568 30.392ZM89.568 27.256C90.6507 27.256 91.5467 26.9107 92.256 26.22C92.9653 25.5107 93.32 24.5027 93.32 23.196V22.916C93.32 21.6093 92.9653 20.6107 92.256 19.92C91.5653 19.2107 90.6693 18.856 89.568 18.856C88.4853 18.856 87.5893 19.2107 86.88 19.92C86.1707 20.6107 85.816 21.6093 85.816 22.916V23.196C85.816 24.5027 86.1707 25.5107 86.88 26.22C87.5893 26.9107 88.4853 27.256 89.568 27.256ZM99.9925 30V10.4H106.853L110.241 27.48H110.745L114.133 10.4H120.993V30H117.409V13.116H116.905L113.545 30H107.441L104.081 13.116H103.577V30H99.9925ZM131.124 30.392C129.743 30.392 128.52 30.1027 127.456 29.524C126.411 28.9267 125.589 28.096 124.992 27.032C124.413 25.9493 124.124 24.68 124.124 23.224V22.888C124.124 21.432 124.413 20.172 124.992 19.108C125.571 18.0253 126.383 17.1947 127.428 16.616C128.473 16.0187 129.687 15.72 131.068 15.72C132.431 15.72 133.616 16.028 134.624 16.644C135.632 17.2413 136.416 18.0813 136.976 19.164C137.536 20.228 137.816 21.4693 137.816 22.888V24.092H127.708C127.745 25.044 128.1 25.8187 128.772 26.416C129.444 27.0133 130.265 27.312 131.236 27.312C132.225 27.312 132.953 27.0973 133.42 26.668C133.887 26.2387 134.241 25.7627 134.484 25.24L137.368 26.752C137.107 27.2373 136.724 27.7693 136.22 28.348C135.735 28.908 135.081 29.3933 134.26 29.804C133.439 30.196 132.393 30.392 131.124 30.392ZM127.736 21.46H134.232C134.157 20.6573 133.831 20.0133 133.252 19.528C132.692 19.0427 131.955 18.8 131.04 18.8C130.088 18.8 129.332 19.0427 128.772 19.528C128.212 20.0133 127.867 20.6573 127.736 21.46ZM147.284 30.392C145.903 30.392 144.68 30.1027 143.616 29.524C142.571 28.9267 141.749 28.096 141.152 27.032C140.573 25.9493 140.284 24.68 140.284 23.224V22.888C140.284 21.432 140.573 20.172 141.152 19.108C141.731 18.0253 142.543 17.1947 143.588 16.616C144.633 16.0187 145.847 15.72 147.228 15.72C148.591 15.72 149.776 16.028 150.784 16.644C151.792 17.2413 152.576 18.0813 153.136 19.164C153.696 20.228 153.976 21.4693 153.976 22.888V24.092H143.868C143.905 25.044 144.26 25.8187 144.932 26.416C145.604 27.0133 146.425 27.312 147.396 27.312C148.385 27.312 149.113 27.0973 149.58 26.668C150.047 26.2387 150.401 25.7627 150.644 25.24L153.528 26.752C153.267 27.2373 152.884 27.7693 152.38 28.348C151.895 28.908 151.241 29.3933 150.42 29.804C149.599 30.196 148.553 30.392 147.284 30.392ZM143.896 21.46H150.392C150.317 20.6573 149.991 20.0133 149.412 19.528C148.852 19.0427 148.115 18.8 147.2 18.8C146.248 18.8 145.492 19.0427 144.932 19.528C144.372 20.0133 144.027 20.6573 143.896 21.46ZM161.971 30C161.057 30 160.31 29.72 159.731 29.16C159.171 28.5813 158.891 27.816 158.891 26.864V19.024H155.419V16.112H158.891V11.8H162.419V16.112H166.227V19.024H162.419V26.248C162.419 26.808 162.681 27.088 163.203 27.088H165.891V30H161.971Z" fill="#181423"/>
</svg>
